<?xml version="1.0" ?><svg viewBox="0 0 64 64" xmlns="http://www.w3.org/2000/svg"><defs><style>.cls-1{isolation:isolate;}.cls-2{fill:#fff;}.cls-3{fill:#ff0683;}.cls-4{fill:#0e66d4;}.cls-5{fill:#939598;}</style></defs><title/><g data-name="12-flickr" id="_12-flickr"><g class="cls-1"><path class="cls-2" d="M42.52,26.89a6.66,6.66,0,0,0-2-4.92l10.59,5.76a6.66,6.66,0,0,1,2,4.92c0,4.08-3.07,7.8-6.84,8.33L35.68,35.22C39.45,34.69,42.51,31,42.52,26.89Z"/><path class="cls-2" d="M32,34.59a5.77,5.77,0,0,0,3.64.63L46.27,41a5.84,5.84,0,0,1-3.64-.63Z"/><path class="cls-2" d="M40.53,22a5.73,5.73,0,0,0-1.17-.85L50,26.88a5.73,5.73,0,0,1,1.17.85l-5.29-2.88-2.75-1.49-1.31-.72A11.38,11.38,0,0,1,40.53,22Z"/><path class="cls-3" d="M39.36,21.12,50,26.88a5.88,5.88,0,0,0-3.65-.62L35.71,20.5A5.87,5.87,0,0,1,39.36,21.12Z"/><path class="cls-3" d="M46.3,26.26c3.77-.54,6.81,2.33,6.81,6.39S50,40.45,46.27,41s-6.81-2.34-6.8-6.41S42.53,26.78,46.3,26.26Z"/><path class="cls-3" d="M42.63,40.35,32,34.59a6.37,6.37,0,0,1-3.16-5.78c0-4.06,3.06-7.78,6.83-8.31L46.3,26.26c-3.77.52-6.83,4.25-6.83,8.31A6.35,6.35,0,0,0,42.63,40.35Z"/><path class="cls-2" d="M24.52,28.88,35.1,34.64a4.87,4.87,0,0,1,0,.54h0L24.53,29.42h0C24.53,29.24,24.53,29.06,24.52,28.88Z"/><path class="cls-2" d="M19.34,37.3a8.66,8.66,0,0,0,5.19-7.88l10.59,5.76a8.69,8.69,0,0,1-5.19,7.88Z"/><path class="cls-2" d="M24.52,28.88A7.41,7.41,0,0,0,24,26.63l10.59,5.76a7.05,7.05,0,0,1,.51,2.25Z"/><path class="cls-2" d="M17.7,37.74a6.51,6.51,0,0,0,1.64-.44l10.59,5.76a7.1,7.1,0,0,1-1.64.44Z"/><path class="cls-2" d="M23.46,25.59l10.59,5.76a6.4,6.4,0,0,1,.54,1L24,26.63A6.4,6.4,0,0,0,23.46,25.59Z"/><path class="cls-2" d="M23.46,25.59a6.42,6.42,0,0,0-.91-1.09l10.58,5.76a6,6,0,0,1,.92,1.09l-5.89-3.2-2.35-1.28-.31-.17-.31-.16-.3-.17-.3-.16-.3-.16-.56-.31A1,1,0,0,1,23.46,25.59Z"/><path class="cls-2" d="M15.05,37.54a5.83,5.83,0,0,0,2.65.2L28.29,43.5a5.89,5.89,0,0,1-2.66-.2Z"/><path class="cls-2" d="M14.05,37.12a5.87,5.87,0,0,0,1,.42L25.63,43.3a6.13,6.13,0,0,1-1-.42Z"/><path class="cls-2" d="M22.55,24.5a5.8,5.8,0,0,0-1.18-.85L32,29.41a5.47,5.47,0,0,1,1.17.85l-5.29-2.88-3.41-1.86-.65-.35A11.24,11.24,0,0,1,22.55,24.5Z"/><path class="cls-4" d="M21.37,23.65,32,29.41a5.84,5.84,0,0,0-3.64-.63L17.73,23A5.84,5.84,0,0,1,21.37,23.65Z"/><path class="cls-4" d="M24.64,42.88,14.05,37.12a6.4,6.4,0,0,1-3.16-5.78c0-4.07,3.07-7.79,6.84-8.32l10.59,5.76c-3.77.53-6.83,4.25-6.84,8.32A6.4,6.4,0,0,0,24.64,42.88Z"/><path class="cls-2" d="M53.47,5.84c4.79-.67,8.67,3,8.66,8.15l-.07,34.8c0,5.18-3.9,9.92-8.69,10.6L21.12,63.92c-4.79.67-8.67-3-8.66-8.15L12.52,21c0-5.18,3.91-9.91,8.7-10.59ZM46.27,41c3.77-.53,6.83-4.25,6.84-8.33s-3-6.93-6.81-6.39-6.83,4.25-6.83,8.31,3,6.94,6.8,6.41m-18,2.52c3.77-.52,6.82-4.25,6.83-8.32s-3-6.93-6.8-6.4S21.49,33,21.48,37.1s3,6.93,6.81,6.4"/><path class="cls-4" d="M28.32,28.78c3.76-.53,6.81,2.34,6.8,6.4S32.06,43,28.29,43.5s-6.82-2.33-6.81-6.4S24.55,29.31,28.32,28.78Z"/><path class="cls-5" d="M47.52.88a7.44,7.44,0,0,0-4.64-.8L10.63,4.61C5.84,5.29,2,10,1.94,15.21L1.87,50a8.12,8.12,0,0,0,4,7.35l10.59,5.76a8.11,8.11,0,0,1-4-7.35L12.52,21c0-5.18,3.91-9.91,8.7-10.59L53.47,5.84a7.42,7.42,0,0,1,4.63.8Z"/></g></g></svg>